<?xml version="1.0" encoding="UTF-8" standalone="no"?>
<!DOCTYPE svg PUBLIC "-//W3C//DTD SVG 1.1//EN"
 "http://www.w3.org/Graphics/SVG/1.1/DTD/svg11.dtd">
<!-- Generated by graphviz version 2.40.1 (20161225.0304)
 -->
<!-- Title: %3 Pages: 1 -->
<svg width="1342pt" height="404pt"
 viewBox="0.00 0.00 1341.88 404.00" xmlns="http://www.w3.org/2000/svg" xmlns:xlink="http://www.w3.org/1999/xlink">
<g id="graph0" class="graph" transform="scale(1 1) rotate(0) translate(4 400)">
<title>%3</title>
<polygon fill="#ffffff" stroke="transparent" points="-4,4 -4,-400 1337.8765,-400 1337.8765,4 -4,4"/>
<!-- [root] aws_instance.secondserver -->
<g id="node1" class="node">
<title>[root] aws_instance.secondserver</title>
<polygon fill="none" stroke="#000000" points="167.3268,-252 -.109,-252 -.109,-216 167.3268,-216 167.3268,-252"/>
<text text-anchor="middle" x="83.6089" y="-229.8" font-family="Times,serif" font-size="14.00" fill="#000000">aws_instance.secondserver</text>
</g>
<!-- [root] aws_subnet.subnet2 -->
<g id="node4" class="node">
<title>[root] aws_subnet.subnet2</title>
<polygon fill="none" stroke="#000000" points="251.9854,-180 123.2324,-180 123.2324,-144 251.9854,-144 251.9854,-180"/>
<text text-anchor="middle" x="187.6089" y="-157.8" font-family="Times,serif" font-size="14.00" fill="#000000">aws_subnet.subnet2</text>
</g>
<!-- [root] aws_instance.secondserver&#45;&gt;[root] aws_subnet.subnet2 -->
<g id="edge1" class="edge">
<title>[root] aws_instance.secondserver&#45;&gt;[root] aws_subnet.subnet2</title>
<path fill="none" stroke="#000000" d="M109.8525,-215.8314C122.9084,-206.7927 138.8623,-195.7476 152.9136,-186.0198"/>
<polygon fill="#000000" stroke="#000000" points="155.144,-188.7326 161.3737,-180.1628 151.1595,-182.9773 155.144,-188.7326"/>
</g>
<!-- [root] data.aws_ami.ubuntu -->
<g id="node8" class="node">
<title>[root] data.aws_ami.ubuntu</title>
<polygon fill="none" stroke="#000000" points="155.0815,-108 20.1362,-108 20.1362,-72 155.0815,-72 155.0815,-108"/>
<text text-anchor="middle" x="87.6089" y="-85.8" font-family="Times,serif" font-size="14.00" fill="#000000">data.aws_ami.ubuntu</text>
</g>
<!-- [root] aws_instance.secondserver&#45;&gt;[root] data.aws_ami.ubuntu -->
<g id="edge2" class="edge">
<title>[root] aws_instance.secondserver&#45;&gt;[root] data.aws_ami.ubuntu</title>
<path fill="none" stroke="#000000" d="M84.1155,-215.7623C84.7977,-191.201 86.0187,-147.2474 86.8213,-118.3541"/>
<polygon fill="#000000" stroke="#000000" points="90.3273,-118.183 87.1064,-108.0896 83.33,-117.9885 90.3273,-118.183"/>
</g>
<!-- [root] aws_security_group.subnetsecurity -->
<g id="node2" class="node">
<title>[root] aws_security_group.subnetsecurity</title>
<polygon fill="none" stroke="#000000" points="398.23,-252 184.9878,-252 184.9878,-216 398.23,-216 398.23,-252"/>
<text text-anchor="middle" x="291.6089" y="-229.8" font-family="Times,serif" font-size="14.00" fill="#000000">aws_security_group.subnetsecurity</text>
</g>
<!-- [root] aws_vpc.environment&#45;example&#45;two -->
<g id="node5" class="node">
<title>[root] aws_vpc.environment&#45;example&#45;two</title>
<polygon fill="none" stroke="#000000" points="397.0991,-108 180.1187,-108 180.1187,-72 397.0991,-72 397.0991,-108"/>
<text text-anchor="middle" x="288.6089" y="-85.8" font-family="Times,serif" font-size="14.00" fill="#000000">aws_vpc.environment&#45;example&#45;two</text>
</g>
<!-- [root] aws_security_group.subnetsecurity&#45;&gt;[root] aws_vpc.environment&#45;example&#45;two -->
<g id="edge3" class="edge">
<title>[root] aws_security_group.subnetsecurity&#45;&gt;[root] aws_vpc.environment&#45;example&#45;two</title>
<path fill="none" stroke="#000000" d="M291.2289,-215.7623C290.7172,-191.201 289.8015,-147.2474 289.1996,-118.3541"/>
<polygon fill="#000000" stroke="#000000" points="292.6934,-118.0145 288.9858,-108.0896 285.6949,-118.1604 292.6934,-118.0145"/>
</g>
<!-- [root] aws_subnet.subnet1 -->
<g id="node3" class="node">
<title>[root] aws_subnet.subnet1</title>
<polygon fill="none" stroke="#000000" points="544.9854,-252 416.2324,-252 416.2324,-216 544.9854,-216 544.9854,-252"/>
<text text-anchor="middle" x="480.6089" y="-229.8" font-family="Times,serif" font-size="14.00" fill="#000000">aws_subnet.subnet1</text>
</g>
<!-- [root] aws_subnet.subnet1&#45;&gt;[root] aws_vpc.environment&#45;example&#45;two -->
<g id="edge4" class="edge">
<title>[root] aws_subnet.subnet1&#45;&gt;[root] aws_vpc.environment&#45;example&#45;two</title>
<path fill="none" stroke="#000000" d="M456.292,-215.7623C421.9567,-190.0108 359.1983,-142.942 320.9605,-114.2637"/>
<polygon fill="#000000" stroke="#000000" points="322.8284,-111.2896 312.7284,-108.0896 318.6284,-116.8897 322.8284,-111.2896"/>
</g>
<!-- [root] aws_subnet.subnet2&#45;&gt;[root] aws_vpc.environment&#45;example&#45;two -->
<g id="edge5" class="edge">
<title>[root] aws_subnet.subnet2&#45;&gt;[root] aws_vpc.environment&#45;example&#45;two</title>
<path fill="none" stroke="#000000" d="M213.0955,-143.8314C225.7747,-134.7927 241.2685,-123.7476 254.9144,-114.0198"/>
<polygon fill="#000000" stroke="#000000" points="257.0194,-116.8176 263.1305,-108.1628 252.956,-111.1176 257.0194,-116.8176"/>
</g>
<!-- [root] provider.aws -->
<g id="node13" class="node">
<title>[root] provider.aws</title>
<polygon fill="none" stroke="#000000" points="152.6089,-36 74.0005,-18 152.6089,0 231.2172,-18 152.6089,-36"/>
<text text-anchor="middle" x="152.6089" y="-13.8" font-family="Times,serif" font-size="14.00" fill="#000000">provider.aws</text>
</g>
<!-- [root] aws_vpc.environment&#45;example&#45;two&#45;&gt;[root] provider.aws -->
<g id="edge6" class="edge">
<title>[root] aws_vpc.environment&#45;example&#45;two&#45;&gt;[root] provider.aws</title>
<path fill="none" stroke="#000000" d="M254.2903,-71.8314C233.2729,-60.7045 206.5125,-46.5372 185.7204,-35.5296"/>
<polygon fill="#000000" stroke="#000000" points="187.1049,-32.3024 176.6294,-30.7168 183.8297,-38.4889 187.1049,-32.3024"/>
</g>
<!-- [root] azurerm_resource_group.azy_network -->
<g id="node6" class="node">
<title>[root] azurerm_resource_group.azy_network</title>
<polygon fill="none" stroke="#000000" points="819.3444,-180 587.8734,-180 587.8734,-144 819.3444,-144 819.3444,-180"/>
<text text-anchor="middle" x="703.6089" y="-157.8" font-family="Times,serif" font-size="14.00" fill="#000000">azurerm_resource_group.azy_network</text>
</g>
<!-- [root] provider.azurerm -->
<g id="node14" class="node">
<title>[root] provider.azurerm</title>
<polygon fill="none" stroke="#000000" points="703.6089,-108 603.4726,-90 703.6089,-72 803.7451,-90 703.6089,-108"/>
<text text-anchor="middle" x="703.6089" y="-85.8" font-family="Times,serif" font-size="14.00" fill="#000000">provider.azurerm</text>
</g>
<!-- [root] azurerm_resource_group.azy_network&#45;&gt;[root] provider.azurerm -->
<g id="edge7" class="edge">
<title>[root] azurerm_resource_group.azy_network&#45;&gt;[root] provider.azurerm</title>
<path fill="none" stroke="#000000" d="M703.6089,-143.8314C703.6089,-136.131 703.6089,-126.9743 703.6089,-118.4166"/>
<polygon fill="#000000" stroke="#000000" points="707.109,-118.4132 703.6089,-108.4133 700.109,-118.4133 707.109,-118.4132"/>
</g>
<!-- [root] azurerm_virtual_network.blue_virtual_network -->
<g id="node7" class="node">
<title>[root] azurerm_virtual_network.blue_virtual_network</title>
<polygon fill="none" stroke="#000000" points="844.9098,-252 562.3079,-252 562.3079,-216 844.9098,-216 844.9098,-252"/>
<text text-anchor="middle" x="703.6089" y="-229.8" font-family="Times,serif" font-size="14.00" fill="#000000">azurerm_virtual_network.blue_virtual_network</text>
</g>
<!-- [root] azurerm_virtual_network.blue_virtual_network&#45;&gt;[root] azurerm_resource_group.azy_network -->
<g id="edge8" class="edge">
<title>[root] azurerm_virtual_network.blue_virtual_network&#45;&gt;[root] azurerm_resource_group.azy_network</title>
<path fill="none" stroke="#000000" d="M703.6089,-215.8314C703.6089,-208.131 703.6089,-198.9743 703.6089,-190.4166"/>
<polygon fill="#000000" stroke="#000000" points="707.109,-190.4132 703.6089,-180.4133 700.109,-190.4133 707.109,-190.4132"/>
</g>
<!-- [root] data.aws_ami.ubuntu&#45;&gt;[root] provider.aws -->
<g id="edge9" class="edge">
<title>[root] data.aws_ami.ubuntu&#45;&gt;[root] provider.aws</title>
<path fill="none" stroke="#000000" d="M104.0111,-71.8314C112.5577,-62.3644 123.0914,-50.6963 132.1644,-40.6462"/>
<polygon fill="#000000" stroke="#000000" points="134.9588,-42.774 139.0619,-33.0059 129.7629,-38.0833 134.9588,-42.774"/>
</g>
<!-- [root] google_compute_instance.firstserver -->
<g id="node9" class="node">
<title>[root] google_compute_instance.firstserver</title>
<polygon fill="none" stroke="#000000" points="1296.2752,-252 1074.9426,-252 1074.9426,-216 1296.2752,-216 1296.2752,-252"/>
<text text-anchor="middle" x="1185.6089" y="-229.8" font-family="Times,serif" font-size="14.00" fill="#000000">google_compute_instance.firstserver</text>
</g>
<!-- [root] google_compute_subnetwork.dev&#45;subnet -->
<g id="node11" class="node">
<title>[root] google_compute_subnetwork.dev&#45;subnet</title>
<polygon fill="none" stroke="#000000" points="1303.6718,-180 1057.546,-180 1057.546,-144 1303.6718,-144 1303.6718,-180"/>
<text text-anchor="middle" x="1180.6089" y="-157.8" font-family="Times,serif" font-size="14.00" fill="#000000">google_compute_subnetwork.dev&#45;subnet</text>
</g>
<!-- [root] google_compute_instance.firstserver&#45;&gt;[root] google_compute_subnetwork.dev&#45;subnet -->
<g id="edge10" class="edge">
<title>[root] google_compute_instance.firstserver&#45;&gt;[root] google_compute_subnetwork.dev&#45;subnet</title>
<path fill="none" stroke="#000000" d="M1184.3472,-215.8314C1183.8124,-208.131 1183.1765,-198.9743 1182.5823,-190.4166"/>
<polygon fill="#000000" stroke="#000000" points="1186.072,-190.1467 1181.8876,-180.4133 1179.0889,-190.6317 1186.072,-190.1467"/>
</g>
<!-- [root] google_compute_network.our_development_network -->
<g id="node10" class="node">
<title>[root] google_compute_network.our_development_network</title>
<polygon fill="none" stroke="#000000" points="1333.6444,-108 1017.5734,-108 1017.5734,-72 1333.6444,-72 1333.6444,-108"/>
<text text-anchor="middle" x="1175.6089" y="-85.8" font-family="Times,serif" font-size="14.00" fill="#000000">google_compute_network.our_development_network</text>
</g>
<!-- [root] provider.google -->
<g id="node15" class="node">
<title>[root] provider.google</title>
<polygon fill="none" stroke="#000000" points="1151.6089,-36 1058.3225,-18 1151.6089,0 1244.8953,-18 1151.6089,-36"/>
<text text-anchor="middle" x="1151.6089" y="-13.8" font-family="Times,serif" font-size="14.00" fill="#000000">provider.google</text>
</g>
<!-- [root] google_compute_network.our_development_network&#45;&gt;[root] provider.google -->
<g id="edge11" class="edge">
<title>[root] google_compute_network.our_development_network&#45;&gt;[root] provider.google</title>
<path fill="none" stroke="#000000" d="M1169.5527,-71.8314C1166.8084,-63.5985 1163.5093,-53.7011 1160.4925,-44.6507"/>
<polygon fill="#000000" stroke="#000000" points="1163.7337,-43.3063 1157.251,-34.9263 1157.0929,-45.52 1163.7337,-43.3063"/>
</g>
<!-- [root] google_compute_subnetwork.dev&#45;subnet&#45;&gt;[root] google_compute_network.our_development_network -->
<g id="edge12" class="edge">
<title>[root] google_compute_subnetwork.dev&#45;subnet&#45;&gt;[root] google_compute_network.our_development_network</title>
<path fill="none" stroke="#000000" d="M1179.3472,-143.8314C1178.8124,-136.131 1178.1765,-126.9743 1177.5823,-118.4166"/>
<polygon fill="#000000" stroke="#000000" points="1181.072,-118.1467 1176.8876,-108.4133 1174.0889,-118.6317 1181.072,-118.1467"/>
</g>
<!-- [root] google_container_cluster.kubey -->
<g id="node12" class="node">
<title>[root] google_container_cluster.kubey</title>
<polygon fill="none" stroke="#000000" points="1057.0616,-252 862.1562,-252 862.1562,-216 1057.0616,-216 1057.0616,-252"/>
<text text-anchor="middle" x="959.6089" y="-229.8" font-family="Times,serif" font-size="14.00" fill="#000000">google_container_cluster.kubey</text>
</g>
<!-- [root] google_container_cluster.kubey&#45;&gt;[root] provider.google -->
<g id="edge13" class="edge">
<title>[root] google_container_cluster.kubey&#45;&gt;[root] provider.google</title>
<path fill="none" stroke="#000000" d="M960.0692,-215.9011C961.8704,-182.9976 970.283,-112.998 1008.6089,-72 1029.7644,-49.3695 1061.361,-36.1495 1089.4775,-28.4633"/>
<polygon fill="#000000" stroke="#000000" points="1090.4302,-31.8324 1099.2546,-25.969 1088.6997,-25.0496 1090.4302,-31.8324"/>
</g>
<!-- [root] var.client_id -->
<g id="node19" class="node">
<title>[root] var.client_id</title>
<ellipse fill="none" stroke="#000000" cx="741.6089" cy="-18" rx="76.3312" ry="18"/>
<text text-anchor="middle" x="741.6089" y="-13.8" font-family="Times,serif" font-size="14.00" fill="#000000">[root] var.client_id</text>
</g>
<!-- [root] provider.azurerm&#45;&gt;[root] var.client_id -->
<g id="edge24" class="edge">
<title>[root] provider.azurerm&#45;&gt;[root] var.client_id</title>
<path fill="none" stroke="#000000" d="M712.4224,-73.3008C716.8622,-64.8885 722.3556,-54.48 727.3746,-44.9702"/>
<polygon fill="#000000" stroke="#000000" points="730.6067,-46.3447 732.179,-35.8671 724.416,-43.0773 730.6067,-46.3447"/>
</g>
<!-- [root] var.client_secret -->
<g id="node20" class="node">
<title>[root] var.client_secret</title>
<ellipse fill="none" stroke="#000000" cx="926.6089" cy="-18" rx="90.3117" ry="18"/>
<text text-anchor="middle" x="926.6089" y="-13.8" font-family="Times,serif" font-size="14.00" fill="#000000">[root] var.client_secret</text>
</g>
<!-- [root] provider.azurerm&#45;&gt;[root] var.client_secret -->
<g id="edge25" class="edge">
<title>[root] provider.azurerm&#45;&gt;[root] var.client_secret</title>
<path fill="none" stroke="#000000" d="M739.4377,-78.432C774.4299,-67.134 828.249,-49.7575 869.2104,-36.5323"/>
<polygon fill="#000000" stroke="#000000" points="870.3567,-39.8401 878.7976,-33.4368 868.2059,-33.1787 870.3567,-39.8401"/>
</g>
<!-- [root] var.subscription_id -->
<g id="node21" class="node">
<title>[root] var.subscription_id</title>
<ellipse fill="none" stroke="#000000" cx="372.6089" cy="-18" rx="100.0106" ry="18"/>
<text text-anchor="middle" x="372.6089" y="-13.8" font-family="Times,serif" font-size="14.00" fill="#000000">[root] var.subscription_id</text>
</g>
<!-- [root] provider.azurerm&#45;&gt;[root] var.subscription_id -->
<g id="edge26" class="edge">
<title>[root] provider.azurerm&#45;&gt;[root] var.subscription_id</title>
<path fill="none" stroke="#000000" d="M658.2788,-80.1397C603.7418,-68.2766 511.4323,-48.1972 446.5369,-34.081"/>
<polygon fill="#000000" stroke="#000000" points="446.8825,-30.5744 436.367,-31.8688 445.3945,-37.4145 446.8825,-30.5744"/>
</g>
<!-- [root] var.tenant_id -->
<g id="node22" class="node">
<title>[root] var.tenant_id</title>
<ellipse fill="none" stroke="#000000" cx="568.6089" cy="-18" rx="78.2607" ry="18"/>
<text text-anchor="middle" x="568.6089" y="-13.8" font-family="Times,serif" font-size="14.00" fill="#000000">[root] var.tenant_id</text>
</g>
<!-- [root] provider.azurerm&#45;&gt;[root] var.tenant_id -->
<g id="edge27" class="edge">
<title>[root] provider.azurerm&#45;&gt;[root] var.tenant_id</title>
<path fill="none" stroke="#000000" d="M678.2164,-76.4574C658.7486,-66.0745 631.5004,-51.5422 609.0429,-39.5648"/>
<polygon fill="#000000" stroke="#000000" points="610.5367,-36.3949 600.0661,-34.7772 607.2425,-42.5713 610.5367,-36.3949"/>
</g>
<!-- [root] meta.count&#45;boundary (count boundary fixup) -->
<g id="node16" class="node">
<title>[root] meta.count&#45;boundary (count boundary fixup)</title>
<ellipse fill="none" stroke="#000000" cx="542.6089" cy="-306" rx="191.6931" ry="18"/>
<text text-anchor="middle" x="542.6089" y="-301.8" font-family="Times,serif" font-size="14.00" fill="#000000">[root] meta.count&#45;boundary (count boundary fixup)</text>
</g>
<!-- [root] meta.count&#45;boundary (count boundary fixup)&#45;&gt;[root] aws_instance.secondserver -->
<g id="edge14" class="edge">
<title>[root] meta.count&#45;boundary (count boundary fixup)&#45;&gt;[root] aws_instance.secondserver</title>
<path fill="none" stroke="#000000" d="M432.7923,-291.2197C362.3256,-281.4087 268.6369,-267.7604 177.2898,-252.2534"/>
<polygon fill="#000000" stroke="#000000" points="177.7614,-248.7833 167.315,-250.551 176.5836,-255.6835 177.7614,-248.7833"/>
</g>
<!-- [root] meta.count&#45;boundary (count boundary fixup)&#45;&gt;[root] aws_security_group.subnetsecurity -->
<g id="edge15" class="edge">
<title>[root] meta.count&#45;boundary (count boundary fixup)&#45;&gt;[root] aws_security_group.subnetsecurity</title>
<path fill="none" stroke="#000000" d="M482.807,-288.8457C447.2676,-278.6511 401.9391,-265.6485 364.338,-254.8625"/>
<polygon fill="#000000" stroke="#000000" points="365.0327,-251.4207 354.4553,-252.0277 363.1026,-258.1494 365.0327,-251.4207"/>
</g>
<!-- [root] meta.count&#45;boundary (count boundary fixup)&#45;&gt;[root] aws_subnet.subnet1 -->
<g id="edge16" class="edge">
<title>[root] meta.count&#45;boundary (count boundary fixup)&#45;&gt;[root] aws_subnet.subnet1</title>
<path fill="none" stroke="#000000" d="M526.9637,-287.8314C519.7498,-279.454 511.0519,-269.3531 503.1484,-260.1749"/>
<polygon fill="#000000" stroke="#000000" points="505.6422,-257.7071 496.4648,-252.4133 500.3378,-262.2748 505.6422,-257.7071"/>
</g>
<!-- [root] meta.count&#45;boundary (count boundary fixup)&#45;&gt;[root] azurerm_virtual_network.blue_virtual_network -->
<g id="edge17" class="edge">
<title>[root] meta.count&#45;boundary (count boundary fixup)&#45;&gt;[root] azurerm_virtual_network.blue_virtual_network</title>
<path fill="none" stroke="#000000" d="M582.4066,-288.2022C604.0131,-278.5397 630.9283,-266.5031 653.903,-256.2287"/>
<polygon fill="#000000" stroke="#000000" points="655.4508,-259.3707 663.1507,-252.0931 652.593,-252.9805 655.4508,-259.3707"/>
</g>
<!-- [root] meta.count&#45;boundary (count boundary fixup)&#45;&gt;[root] google_compute_instance.firstserver -->
<g id="edge18" class="edge">
<title>[root] meta.count&#45;boundary (count boundary fixup)&#45;&gt;[root] google_compute_instance.firstserver</title>
<path fill="none" stroke="#000000" d="M680.7271,-293.4868C783.706,-283.7444 928.066,-269.2193 1064.5778,-252.0995"/>
<polygon fill="#000000" stroke="#000000" points="1065.3272,-255.5328 1074.8109,-250.8094 1064.4516,-248.5878 1065.3272,-255.5328"/>
</g>
<!-- [root] meta.count&#45;boundary (count boundary fixup)&#45;&gt;[root] google_container_cluster.kubey -->
<g id="edge19" class="edge">
<title>[root] meta.count&#45;boundary (count boundary fixup)&#45;&gt;[root] google_container_cluster.kubey</title>
<path fill="none" stroke="#000000" d="M634.3793,-290.1547C698.5864,-279.0686 784.5839,-264.2201 852.021,-252.5763"/>
<polygon fill="#000000" stroke="#000000" points="852.9958,-255.9599 862.2545,-250.8094 851.8047,-249.062 852.9958,-255.9599"/>
</g>
<!-- [root] provider.aws (close) -->
<g id="node17" class="node">
<title>[root] provider.aws (close)</title>
<ellipse fill="none" stroke="#000000" cx="228.6089" cy="-306" rx="104.3276" ry="18"/>
<text text-anchor="middle" x="228.6089" y="-301.8" font-family="Times,serif" font-size="14.00" fill="#000000">[root] provider.aws (close)</text>
</g>
<!-- [root] provider.aws (close)&#45;&gt;[root] aws_instance.secondserver -->
<g id="edge20" class="edge">
<title>[root] provider.aws (close)&#45;&gt;[root] aws_instance.secondserver</title>
<path fill="none" stroke="#000000" d="M194.2459,-288.937C174.7679,-279.2651 150.1557,-267.0439 129.0933,-256.5854"/>
<polygon fill="#000000" stroke="#000000" points="130.5173,-253.3847 120.004,-252.0721 127.404,-259.6544 130.5173,-253.3847"/>
</g>
<!-- [root] provider.aws (close)&#45;&gt;[root] aws_security_group.subnetsecurity -->
<g id="edge21" class="edge">
<title>[root] provider.aws (close)&#45;&gt;[root] aws_security_group.subnetsecurity</title>
<path fill="none" stroke="#000000" d="M244.1819,-288.2022C251.6972,-279.6134 260.8538,-269.1486 269.1099,-259.7131"/>
<polygon fill="#000000" stroke="#000000" points="271.8264,-261.9237 275.7774,-252.0931 266.5583,-257.3141 271.8264,-261.9237"/>
</g>
<!-- [root] provider.aws (close)&#45;&gt;[root] aws_subnet.subnet1 -->
<g id="edge22" class="edge">
<title>[root] provider.aws (close)&#45;&gt;[root] aws_subnet.subnet1</title>
<path fill="none" stroke="#000000" d="M282.6692,-290.5542C319.1433,-280.133 367.7127,-266.2561 407.6112,-254.8565"/>
<polygon fill="#000000" stroke="#000000" points="408.6382,-258.2032 417.2919,-252.0906 406.7151,-251.4725 408.6382,-258.2032"/>
</g>
<!-- [root] provider.azurerm (close) -->
<g id="node18" class="node">
<title>[root] provider.azurerm (close)</title>
<ellipse fill="none" stroke="#000000" cx="871.6089" cy="-306" rx="119.2527" ry="18"/>
<text text-anchor="middle" x="871.6089" y="-301.8" font-family="Times,serif" font-size="14.00" fill="#000000">[root] provider.azurerm (close)</text>
</g>
<!-- [root] provider.azurerm (close)&#45;&gt;[root] azurerm_virtual_network.blue_virtual_network -->
<g id="edge23" class="edge">
<title>[root] provider.azurerm (close)&#45;&gt;[root] azurerm_virtual_network.blue_virtual_network</title>
<path fill="none" stroke="#000000" d="M831.7952,-288.937C808.8228,-279.0917 779.6865,-266.6047 754.9989,-256.0243"/>
<polygon fill="#000000" stroke="#000000" points="756.3473,-252.7943 745.7771,-252.0721 753.5898,-259.2283 756.3473,-252.7943"/>
</g>
<!-- [root] provider.google (close) -->
<g id="node23" class="node">
<title>[root] provider.google (close)</title>
<ellipse fill="none" stroke="#000000" cx="1123.6089" cy="-306" rx="114.4592" ry="18"/>
<text text-anchor="middle" x="1123.6089" y="-301.8" font-family="Times,serif" font-size="14.00" fill="#000000">[root] provider.google (close)</text>
</g>
<!-- [root] provider.google (close)&#45;&gt;[root] google_compute_instance.firstserver -->
<g id="edge28" class="edge">
<title>[root] provider.google (close)&#45;&gt;[root] google_compute_instance.firstserver</title>
<path fill="none" stroke="#000000" d="M1139.2541,-287.8314C1146.4679,-279.454 1155.1659,-269.3531 1163.0694,-260.1749"/>
<polygon fill="#000000" stroke="#000000" points="1165.88,-262.2748 1169.753,-252.4133 1160.5756,-257.7071 1165.88,-262.2748"/>
</g>
<!-- [root] provider.google (close)&#45;&gt;[root] google_container_cluster.kubey -->
<g id="edge29" class="edge">
<title>[root] provider.google (close)&#45;&gt;[root] google_container_cluster.kubey</title>
<path fill="none" stroke="#000000" d="M1084.7432,-288.937C1062.4165,-279.135 1034.1256,-266.7147 1010.0941,-256.1642"/>
<polygon fill="#000000" stroke="#000000" points="1011.3365,-252.8873 1000.7731,-252.0721 1008.5225,-259.2968 1011.3365,-252.8873"/>
</g>
<!-- [root] root -->
<g id="node24" class="node">
<title>[root] root</title>
<ellipse fill="none" stroke="#000000" cx="706.6089" cy="-378" rx="46.8976" ry="18"/>
<text text-anchor="middle" x="706.6089" y="-373.8" font-family="Times,serif" font-size="14.00" fill="#000000">[root] root</text>
</g>
<!-- [root] root&#45;&gt;[root] meta.count&#45;boundary (count boundary fixup) -->
<g id="edge30" class="edge">
<title>[root] root&#45;&gt;[root] meta.count&#45;boundary (count boundary fixup)</title>
<path fill="none" stroke="#000000" d="M675.7617,-364.4574C652.2726,-354.145 619.4595,-339.7393 592.2851,-327.8091"/>
<polygon fill="#000000" stroke="#000000" points="593.4964,-324.5184 582.9329,-323.7032 590.6824,-330.9279 593.4964,-324.5184"/>
</g>
<!-- [root] root&#45;&gt;[root] provider.aws (close) -->
<g id="edge31" class="edge">
<title>[root] root&#45;&gt;[root] provider.aws (close)</title>
<path fill="none" stroke="#000000" d="M662.7614,-371.6732C594.2047,-361.7449 457.4756,-341.7987 341.6089,-324 332.9779,-322.6742 323.9793,-321.2729 314.9938,-319.8613"/>
<polygon fill="#000000" stroke="#000000" points="315.2977,-316.3661 304.8747,-318.2666 314.2079,-323.2807 315.2977,-316.3661"/>
</g>
<!-- [root] root&#45;&gt;[root] provider.azurerm (close) -->
<g id="edge32" class="edge">
<title>[root] root&#45;&gt;[root] provider.azurerm (close)</title>
<path fill="none" stroke="#000000" d="M737.6441,-364.4574C761.6941,-353.9628 795.4591,-339.229 823.0735,-327.1791"/>
<polygon fill="#000000" stroke="#000000" points="824.7929,-330.2476 832.5585,-323.0402 821.9932,-323.8318 824.7929,-330.2476"/>
</g>
<!-- [root] root&#45;&gt;[root] provider.google (close) -->
<g id="edge33" class="edge">
<title>[root] root&#45;&gt;[root] provider.google (close)</title>
<path fill="none" stroke="#000000" d="M749.2755,-370.6331C816.533,-359.0203 948.5786,-336.2211 1036.4761,-321.0445"/>
<polygon fill="#000000" stroke="#000000" points="1037.1771,-324.4754 1046.4357,-319.3249 1035.986,-317.5774 1037.1771,-324.4754"/>
</g>
</g>
</svg>
